<?xml version="1.0" encoding="UTF-8" standalone="no"?>
<svg
   width="192"
   height="192"
   viewBox="0 0 192 192"
   version="1.1"
   id="svg250"
   sodipodi:docname="icon.svg"
   inkscape:version="1.2.2 (b0a8486541, 2022-12-01)"
   xmlns:inkscape="http://www.inkscape.org/namespaces/inkscape"
   xmlns:sodipodi="http://sodipodi.sourceforge.net/DTD/sodipodi-0.dtd"
   xmlns="http://www.w3.org/2000/svg"
   xmlns:svg="http://www.w3.org/2000/svg">
  <defs
     id="defs254" />
  <sodipodi:namedview
     id="namedview252"
     pagecolor="#ffffff"
     bordercolor="#000000"
     borderopacity="0.25"
     inkscape:showpageshadow="2"
     inkscape:pageopacity="0.0"
     inkscape:pagecheckerboard="0"
     inkscape:deskcolor="#d1d1d1"
     showgrid="false"
     inkscape:zoom="1.9065532"
     inkscape:cx="86.805865"
     inkscape:cy="135.58499"
     inkscape:window-width="2560"
     inkscape:window-height="1368"
     inkscape:window-x="0"
     inkscape:window-y="0"
     inkscape:window-maximized="1"
     inkscape:current-layer="g248" />
  <rect
     width="192"
     height="192"
     rx="24"
     fill="#2196F3"
     id="rect242" />
  <g
     transform="matrix(1.6778763,0,0,1.6971526,14.394757,14.371007)"
     fill="#ffffff"
     id="g248">
    <rect
       x="0.63603055"
       y="0"
       width="96"
       height="96"
       rx="12"
       id="rect244" />
    <path
       d="M 79.896186,52.847566 91.022885,74.059249 H 68.769486 Z"
       fill="#2196f3"
       id="path246"
       style="stroke-width:0.678947" />
    <path
       d="M 19.867589,66.224522 30.994285,87.436205 H 8.7408891 Z"
       fill="#2196f3"
       id="path246-6"
       style="stroke-width:0.678947" />
    <path
       style="fill:#d85500;fill-opacity:1;stroke:#f29108;stroke-width:6.98901;stroke-linecap:round;stroke-dasharray:none;stroke-opacity:1;stop-color:#000000"
       d="M 0.18196821,67.99777 100.21611,44.264598"
       id="path427"
       sodipodi:nodetypes="cc" />
  </g>
  <path
     id="path2107"
     style="fill:#ff0000;fill-opacity:0.558824;stroke:#f10807;stroke-width:9.03007;stroke-linecap:round;stroke-dasharray:none;stroke-opacity:1;stop-color:#000000"
     d="m 100.21199,35.947887 c -1.705057,5e-6 -3.340387,-0.529332 -4.512497,-0.1678 -1.14345,-0.333755 -2.27568,0.20955 -3.91149,0.20955 -11.605983,2.6e-5 -22.151613,10.105199 -22.150707,19.427832 0.836532,7.474318 12.599854,17.198572 16.657787,24.564098 4.25591,7.724898 6.87342,20.565293 9.75526,19.335482 2.84238,0.893691 5.448247,-11.745293 9.654577,-19.380172 4.05794,-7.365526 15.82125,-17.086799 16.65778,-24.561117 9.2e-4,-9.322633 -10.54472,-19.427807 -22.15071,-19.427833 z"
     sodipodi:nodetypes="scccscscss" />
</svg>
